<svg width="386" height="386" xmlns="http://www.w3.org/2000/svg" xmlns:xlink="http://www.w3.org/1999/xlink" xml:space="preserve" overflow="hidden"><defs><clipPath id="clip0"><rect x="285" y="1410" width="386" height="386"/></clipPath><clipPath id="clip1"><rect x="313" y="1437" width="331" height="331"/></clipPath><clipPath id="clip2"><rect x="313" y="1437" width="331" height="331"/></clipPath><clipPath id="clip3"><rect x="313" y="1437" width="331" height="331"/></clipPath></defs><g clip-path="url(#clip0)" transform="translate(-285 -1410)"><g clip-path="url(#clip1)"><g clip-path="url(#clip2)"><g clip-path="url(#clip3)"><path d="M533 1541.12C533 1571.5 508.376 1596.12 478 1596.12 447.625 1596.12 423 1571.5 423 1541.12 423 1510.75 447.625 1486.12 478 1486.12 508.376 1486.12 533 1510.75 533 1541.12Z"/><path d="M588 1719.87 588 1664.87C588 1656.62 583.875 1648.37 577 1642.87 561.875 1630.5 542.625 1622.25 523.375 1616.75 509.625 1612.62 494.5 1609.87 478 1609.87 462.875 1609.87 447.75 1612.62 432.625 1616.75 413.375 1622.25 394.125 1631.87 379 1642.87 372.125 1648.37 368 1656.62 368 1664.87L368 1719.87 588 1719.87Z"/></g></g></g><path d="M290 1603C290 1499.17 374.171 1415 478 1415 581.829 1415 666 1499.17 666 1603 666 1706.83 581.829 1791 478 1791 374.171 1791 290 1706.83 290 1603Z" stroke="#000000" stroke-width="10.3125" stroke-linejoin="round" stroke-miterlimit="10" fill="none" fill-rule="evenodd"/></g></svg>