<svg width="387" height="386" xmlns="http://www.w3.org/2000/svg" xmlns:xlink="http://www.w3.org/1999/xlink" xml:space="preserve" overflow="hidden"><defs><clipPath id="clip0"><rect x="338" y="579" width="387" height="386"/></clipPath><clipPath id="clip1"><rect x="366" y="607" width="331" height="331"/></clipPath><clipPath id="clip2"><rect x="366" y="607" width="331" height="331"/></clipPath><clipPath id="clip3"><rect x="366" y="607" width="331" height="331"/></clipPath></defs><g clip-path="url(#clip0)" transform="translate(-338 -579)"><g clip-path="url(#clip1)"><g clip-path="url(#clip2)"><g clip-path="url(#clip3)"><path d="M630 825.625C614.875 813.25 595.625 805 576.375 799.5 562.625 795.375 547.5 792.625 531 792.625 515.875 792.625 500.75 795.375 485.625 799.5 466.375 805 447.125 814.625 432 825.625 425.125 831.125 421 839.375 421 847.625L421 902.625 641 902.625 641 847.625C641 839.375 636.875 831.125 630 825.625Z"/><path d="M477.375 677.125C479.438 677.125 481.156 676.438 482.188 675.063L482.188 675.063C494.906 662.688 512.094 655.125 531 655.125 568.813 655.125 599.75 686.063 599.75 723.875L599.75 739.688 560.219 752.75C558.5 752.063 556.781 751.375 555.063 751.375 549.219 751.375 544.75 755.844 544.75 761.688 544.75 767.531 549.219 772 555.063 772 559.188 772 562.969 769.594 564.688 765.813L619.344 747.594C622.094 746.563 624.156 744.156 624.156 741.063L624.156 710.125C624.156 706.344 621.063 703.25 617.281 703.25L611.094 703.25C601.813 667.844 569.5 641.375 531 641.375 508.656 641.375 488.375 650.313 473.25 664.75 471.531 666.125 470.5 667.844 470.5 670.25 470.5 674.031 473.594 677.125 477.375 677.125Z"/><path d="M585.656 729.719C586 727.656 586 725.938 586 723.875 586 693.625 561.25 668.875 531 668.875 500.75 668.875 476 693.625 476 723.875 476 754.125 500.75 778.875 531 778.875 532.031 778.875 533.406 778.875 534.438 778.531L534.438 761.688 534.438 761.688C534.438 758.594 535.125 755.5 536.5 752.406 538.906 747.594 543.031 743.813 548.531 742.094L585.656 729.719Z"/></g></g></g><path d="M343 772C343 668.171 427.394 584 531.5 584 635.606 584 720 668.171 720 772 720 875.83 635.606 960 531.5 960 427.394 960 343 875.83 343 772Z" stroke="#000000" stroke-width="10.3125" stroke-linejoin="round" stroke-miterlimit="10" fill="none" fill-rule="evenodd"/></g></svg>